<mxfile host="app.diagrams.net" modified="2023-11-04T11:39:16.027Z" agent="Mozilla/5.0 (Windows NT 10.0; Win64; x64) AppleWebKit/537.36 (KHTML, like Gecko) Chrome/119.0.0.0 Safari/537.36" version="22.0.8" etag="VH7oXztHBvO5G2lBPZaI" type="github">
  <diagram name="ページ1" id="kpZ7DMK9d4Nb93xADbqp">
    <mxGraphModel>
      <root>
        <mxCell id="0" />
        <mxCell id="1" parent="0" />
      </root>
    </mxGraphModel>
  </diagram>
</mxfile>
